<svg width="49" height="33" viewBox="0 0 49 33" fill="none" xmlns="http://www.w3.org/2000/svg">
<path d="M47.9785 5.28532C47.701 4.29558 47.1606 3.39953 46.4146 2.6924C45.6475 1.96354 44.7073 1.44216 43.6828 1.17749C39.8486 0.166862 24.4871 0.166863 24.4871 0.166863C18.083 0.094001 11.6806 0.414465 5.31581 1.12645C4.29128 1.41067 3.35287 1.9437 2.58406 2.67811C1.82864 3.40495 1.28147 4.30124 0.99564 5.28328C0.309013 8.98226 -0.0245968 12.7381 -0.000693043 16.5002C-0.025193 20.2589 0.307599 24.0135 0.99564 27.7171C1.27535 28.6951 1.82047 29.5873 2.57793 30.308C3.33539 31.0287 4.27864 31.5493 5.31581 31.8249C9.2011 32.8335 24.4871 32.8335 24.4871 32.8335C30.8992 32.9065 37.3099 32.586 43.6828 31.8739C44.7073 31.6093 45.6475 31.0879 46.4146 30.359C47.1603 29.652 47.7001 28.7559 47.9764 27.7661C48.681 24.0686 49.0236 20.3112 48.9993 16.5472C49.0523 12.7672 48.7102 8.9921 47.9785 5.28328V5.28532ZM19.6034 23.4909V9.51157L32.3842 16.5022L19.6034 23.4909Z" fill="#EC1C23"/>
</svg>
