<svg width="21" height="22" viewBox="0 0 21 22" fill="none" xmlns="http://www.w3.org/2000/svg">
<path d="M0 11.0312C0 16.8302 4.70101 21.5312 10.5 21.5312C16.299 21.5312 21 16.8302 21 11.0312C21 5.23226 16.299 0.53125 10.5 0.53125C4.70101 0.53125 0 5.23226 0 11.0312Z" fill="#23AE64"/>
<path fill-rule="evenodd" clip-rule="evenodd" d="M14.175 7.29063C13.1906 6.30625 11.8781 5.78125 10.5 5.78125C7.6125 5.78125 5.25 8.14375 5.25 11.0312C5.25 11.95 5.5125 12.8688 5.97188 13.6562L5.25 16.2812L8.00626 15.5594C8.79376 15.9531 9.64687 16.2156 10.5 16.2156C13.3875 16.2156 15.75 13.8531 15.75 10.9656C15.75 9.5875 15.1594 8.275 14.175 7.29063ZM10.5 15.3625C9.7125 15.3625 8.925 15.1656 8.26875 14.7719L8.1375 14.7063L6.49687 15.1656L6.95625 13.5906L6.825 13.3938C6.36562 12.6719 6.16875 11.8844 6.16875 11.0969C6.16875 8.73438 8.1375 6.76562 10.5 6.76562C11.6813 6.76562 12.7313 7.225 13.5844 8.0125C14.4375 8.86562 14.8313 9.91563 14.8313 11.0969C14.8313 13.3938 12.9281 15.3625 10.5 15.3625ZM12.8625 12.0813C12.7313 12.0156 12.075 11.6875 11.9438 11.6875C11.8125 11.6219 11.7469 11.6219 11.6812 11.7531C11.6156 11.8844 11.3531 12.1469 11.2875 12.2781C11.2219 12.3437 11.1562 12.3438 11.025 12.3438C10.8937 12.2781 10.5 12.1469 9.97501 11.6875C9.58126 11.3594 9.31875 10.9 9.25313 10.7688C9.1875 10.6375 9.25313 10.5719 9.31876 10.5062C9.38438 10.4406 9.45 10.375 9.51562 10.3094C9.58125 10.2437 9.58126 10.1781 9.64688 10.1125C9.71251 10.0469 9.64688 9.98125 9.64688 9.91563C9.64688 9.85 9.38438 9.19375 9.25313 8.93125C9.1875 8.73438 9.05626 8.73438 8.99063 8.73438C8.92501 8.73438 8.85937 8.73438 8.72812 8.73438C8.66249 8.73438 8.53124 8.73437 8.39999 8.86562C8.26874 8.99687 7.94063 9.325 7.94063 9.98125C7.94063 10.6375 8.4 11.2281 8.46562 11.3594C8.53125 11.425 9.38437 12.8031 10.6969 13.3281C11.8125 13.7875 12.0094 13.6562 12.2719 13.6562C12.5344 13.6562 13.0594 13.3281 13.125 13.0656C13.2563 12.7375 13.2563 12.475 13.1906 12.475C13.125 12.1469 12.9938 12.1469 12.8625 12.0813Z" fill="white"/>
</svg>
