<svg width="95" height="95" viewBox="0 0 95 95" fill="none" xmlns="http://www.w3.org/2000/svg">
    <path fill-rule="evenodd" clip-rule="evenodd"
          d="M56.3185 24.9481C56.1327 24.8448 55.9399 24.7484 55.7472 24.652C55.5544 24.5557 55.3617 24.4662 55.162 24.3767C54.9624 24.2872 54.7696 24.2046 54.57 24.122C54.3703 24.0394 54.1776 23.9636 53.978 23.8879C53.6957 23.7847 53.4135 23.6883 53.1312 23.5988C52.9316 23.5368 52.7251 23.4749 52.5185 23.4198C52.312 23.3647 52.1055 23.3097 51.8921 23.2615C51.6856 23.2133 51.4722 23.1651 51.2588 23.1238C51.0522 23.0825 50.8388 23.0412 50.6254 23.0068C50.4189 22.9723 50.2055 22.9379 49.9921 22.9104C49.6961 22.8691 49.4069 22.8347 49.104 22.814C48.8906 22.7934 48.6772 22.7796 48.4638 22.7658C48.2504 22.7589 48.037 22.7452 47.8236 22.7452C47.7135 22.7452 47.6102 22.7383 47.5001 22.7383C47.3899 22.7383 47.2867 22.7383 47.1765 22.7452C46.9631 22.7452 46.7497 22.752 46.5294 22.7658C46.316 22.7796 46.1026 22.7934 45.8961 22.814C45.6001 22.8347 45.304 22.8691 45.008 22.9104C44.7946 22.9379 44.5881 22.9723 44.3747 23.0068C44.1613 23.0412 43.9479 23.0825 43.7414 23.1238C43.528 23.1651 43.3146 23.2133 43.108 23.2615C42.9015 23.3097 42.695 23.3647 42.4885 23.4198C42.2819 23.4749 42.0823 23.5368 41.8758 23.5988C41.5935 23.6883 41.3113 23.7847 41.029 23.8879C40.8294 23.9636 40.6298 24.0394 40.437 24.122C40.2374 24.2046 40.0377 24.2872 39.845 24.3767C39.6454 24.4662 39.4526 24.5557 39.2598 24.652C39.0671 24.7484 38.8743 24.8448 38.6885 24.9481C38.5026 25.0444 38.3098 25.1477 38.1309 25.2578L40.3062 29.0303C40.4508 28.9477 40.5885 28.872 40.733 28.7963C40.8776 28.7205 41.0222 28.6448 41.1736 28.5691C41.3251 28.4934 41.4696 28.4245 41.6211 28.3626C41.7725 28.2937 41.924 28.2318 42.0754 28.1698C42.2269 28.1078 42.3783 28.0459 42.5298 27.9908C42.7432 27.9151 42.9635 27.8394 43.1769 27.7705C43.3352 27.7223 43.4867 27.6741 43.645 27.6328C43.8033 27.5915 43.9617 27.5502 44.1269 27.5089C44.2852 27.4676 44.4504 27.4332 44.6156 27.3988C44.7809 27.3644 44.9392 27.3368 45.1044 27.3093C45.2627 27.2818 45.428 27.2542 45.5863 27.2336C45.8135 27.1991 46.0406 27.1785 46.2678 27.1578C46.433 27.1441 46.5914 27.1303 46.7566 27.1234C46.9218 27.1165 47.087 27.1097 47.2522 27.1097C47.3348 27.1097 47.4175 27.1097 47.5001 27.1097C47.5827 27.1097 47.6653 27.1097 47.7479 27.1097C47.9131 27.1097 48.0783 27.1165 48.2435 27.1234C48.4088 27.1303 48.574 27.1441 48.7323 27.1578C48.9595 27.1785 49.1867 27.1991 49.4138 27.2336C49.579 27.2542 49.7374 27.2749 49.9026 27.3093C50.0678 27.3368 50.2261 27.3644 50.3914 27.3988C50.5566 27.4332 50.7149 27.4676 50.8733 27.5089C51.0385 27.5434 51.1968 27.5847 51.3551 27.6328C51.5135 27.6741 51.6718 27.7223 51.8232 27.7705C52.0435 27.8394 52.2569 27.9151 52.4704 27.9908C52.6218 28.0459 52.7732 28.1078 52.9247 28.1698C53.0761 28.2318 53.2276 28.2937 53.379 28.3626C53.5305 28.4314 53.6819 28.5002 53.8265 28.5691C53.978 28.6379 54.1225 28.7136 54.2671 28.7963C54.4117 28.872 54.5562 28.9546 54.6939 29.0303L56.8693 25.2578C56.6903 25.1546 56.5044 25.0444 56.3185 24.9481Z"
          fill="#2E4F75"/>
    <path fill-rule="evenodd" clip-rule="evenodd"
          d="M57.7644 22.2216C57.5441 22.1045 57.3238 21.9875 57.0966 21.8774C56.8694 21.7672 56.6423 21.6571 56.4151 21.5607C56.1879 21.4574 55.9608 21.3611 55.7267 21.2647C55.4995 21.1752 55.2655 21.0788 55.0314 20.9962L53.9713 23.8944C53.689 23.7911 53.4068 23.6948 53.1245 23.6053L54.047 20.6589C53.8129 20.5832 53.572 20.5143 53.331 20.4455C53.0901 20.3766 52.8492 20.3147 52.6013 20.2596C52.3604 20.1976 52.1126 20.1495 51.8647 20.0944C51.6238 20.0462 51.376 19.998 51.1281 19.9567C50.8872 19.9154 50.6394 19.881 50.3915 19.8466L49.9854 22.9031C49.6894 22.8618 49.4002 22.8274 49.0973 22.8067L49.3589 19.7295C49.1111 19.7089 48.8633 19.6882 48.6155 19.6813C48.3676 19.6676 48.1198 19.6607 47.8651 19.6538C47.7412 19.6538 47.6173 19.6538 47.4865 19.6538C47.3626 19.6538 47.2387 19.6538 47.1079 19.6538C46.86 19.6607 46.6053 19.6676 46.3575 19.6813C46.1097 19.6951 45.8618 19.7089 45.614 19.7295L45.8756 22.8067C45.5796 22.8274 45.2836 22.8618 44.9876 22.9031L44.5814 19.8466C44.3336 19.881 44.0926 19.9154 43.8448 19.9567C43.597 19.998 43.356 20.0393 43.1082 20.0944C42.8604 20.1426 42.6126 20.1976 42.3716 20.2596C42.1307 20.3147 41.8829 20.3766 41.6488 20.4455C41.4079 20.5143 41.1738 20.5832 40.9329 20.652L41.8553 23.5984C41.5731 23.6879 41.2908 23.7842 41.0086 23.8875L39.9484 20.9893C39.7144 21.0719 39.4872 21.1614 39.2531 21.2578C39.0191 21.3542 38.7919 21.4505 38.5647 21.5538C38.3376 21.6571 38.1104 21.7603 37.8832 21.8705C37.656 21.9806 37.4358 22.0908 37.2155 22.2147C36.9952 22.3317 36.7818 22.4487 36.5684 22.5726L38.1104 25.2505L40.2858 29.023C40.4303 28.9404 40.568 28.8647 40.7126 28.7889C40.8571 28.7132 41.0017 28.6375 41.1531 28.5618C41.3046 28.4861 41.4492 28.4172 41.6006 28.3553C41.7521 28.2864 41.9035 28.2245 42.055 28.1625C42.2064 28.1005 42.3579 28.0386 42.5093 27.9835C42.7227 27.9078 42.943 27.8321 43.1564 27.7632C43.3147 27.715 43.4662 27.6669 43.6245 27.6255C43.7829 27.5842 43.9412 27.5429 44.1064 27.5016C44.2647 27.4603 44.43 27.4259 44.5952 27.3915C44.7604 27.3571 44.9187 27.3295 45.0839 27.302C45.2423 27.2745 45.4075 27.2469 45.5658 27.2263C45.793 27.1918 46.0202 27.1712 46.2473 27.1505C46.4126 27.1368 46.5709 27.123 46.7361 27.1161C46.9013 27.1092 47.0665 27.1024 47.2318 27.1024C47.3144 27.1024 47.397 27.1024 47.4796 27.1024C47.5622 27.1024 47.6448 27.1024 47.7274 27.1024C47.8926 27.1024 48.0579 27.1092 48.2231 27.1161C48.3883 27.123 48.5535 27.1368 48.7118 27.1505C48.939 27.1712 49.1662 27.1918 49.3934 27.2263C49.5586 27.2469 49.7169 27.2676 49.8821 27.302C50.0473 27.3295 50.2057 27.3571 50.3709 27.3915C50.5361 27.4259 50.6944 27.4603 50.8528 27.5016C51.018 27.5361 51.1763 27.5774 51.3347 27.6255C51.493 27.6669 51.6513 27.715 51.8028 27.7632C52.0231 27.8321 52.2365 27.9078 52.4499 27.9835C52.6013 28.0386 52.7528 28.1005 52.9042 28.1625C53.0557 28.2245 53.2071 28.2864 53.3586 28.3553C53.51 28.4241 53.6615 28.4929 53.806 28.5618C53.9575 28.6306 54.1021 28.7063 54.2466 28.7889C54.3912 28.8647 54.5358 28.9473 54.6734 29.023L56.8488 25.2505L58.3908 22.5795C58.205 22.4556 57.9847 22.3386 57.7644 22.2216Z"
          fill="#2E4F75"/>
    <path fill-rule="evenodd" clip-rule="evenodd"
          d="M58.2119 21.3888L57.7714 22.2218C57.5511 22.1048 57.3308 21.9877 57.1036 21.8776L57.5166 21.0309C57.2826 20.9138 57.0416 20.8037 56.8076 20.7004L56.4221 21.5609C56.1949 21.4577 55.9677 21.3613 55.7337 21.2649L56.0916 20.3906C55.8507 20.2943 55.6098 20.1979 55.3688 20.1084L55.0453 20.9964L53.9851 23.8946C53.7029 23.7914 53.4206 23.695 53.1384 23.6055L54.0608 20.6591L54.3431 19.7573C54.0953 19.6816 53.8474 19.6059 53.5996 19.537L53.3449 20.4457C53.104 20.3769 52.863 20.3149 52.6152 20.2599L52.8355 19.3443C52.5808 19.2823 52.3261 19.2272 52.0714 19.1722L51.8855 20.1015C51.6445 20.0533 51.3967 20.0051 51.1489 19.9638L51.3072 19.0345C51.0525 18.9932 50.7978 18.9519 50.5362 18.9175L50.4123 19.8537L50.0061 22.9102C49.7101 22.8689 49.421 22.8345 49.1181 22.8138L49.3797 19.7367L49.4623 18.7935C49.2076 18.7729 48.946 18.7522 48.6913 18.7385L48.6431 19.6816C48.3953 19.6678 48.1474 19.6609 47.8927 19.6541L47.9065 18.7109C47.7757 18.7109 47.6449 18.7109 47.5141 18.7109C47.3833 18.7109 47.2525 18.7109 47.1217 18.7109L47.1355 19.6541C46.8877 19.6609 46.6329 19.6678 46.3851 19.6816L46.3369 18.7385C46.0753 18.7522 45.8206 18.766 45.5659 18.7935L45.6485 19.7367L45.9101 22.8138C45.6141 22.8345 45.3181 22.8689 45.0221 22.9102L44.6159 19.8537L44.492 18.9175C44.2304 18.9519 43.9757 18.9863 43.721 19.0345L43.8793 19.9638C43.6315 20.0051 43.3906 20.0464 43.1427 20.1015L42.9569 19.1791C42.7022 19.2341 42.4406 19.2892 42.1858 19.3512L42.4061 20.2667C42.1652 20.3218 41.9174 20.3838 41.6833 20.4526L41.4286 19.5439C41.1808 19.6127 40.933 19.6885 40.6851 19.7642L40.9674 20.666L41.8898 23.6124C41.6076 23.7019 41.3253 23.7983 41.0431 23.9015L39.983 21.0033L39.6594 20.1153C39.4185 20.2048 39.1706 20.3012 38.9366 20.3975L39.2945 21.2718C39.0605 21.3682 38.8333 21.4646 38.6061 21.5678L38.2206 20.7073C37.9797 20.8106 37.7456 20.9276 37.5116 21.0377L37.9246 21.8845C37.6974 21.9946 37.4772 22.1048 37.2569 22.2287L36.8163 21.3957C36.5891 21.5196 36.3619 21.6435 36.1348 21.7743L36.6029 22.5935L38.1449 25.2714L40.3203 29.0439C40.4648 28.9613 40.6025 28.8856 40.7471 28.8098C40.8916 28.7341 41.0362 28.6584 41.1877 28.5827C41.3391 28.507 41.4837 28.4381 41.6351 28.3762C41.7866 28.3073 41.938 28.2454 42.0895 28.1834C42.2409 28.1214 42.3924 28.0595 42.5438 28.0044C42.7572 27.9287 42.9775 27.853 43.1909 27.7841C43.3493 27.7359 43.5007 27.6877 43.659 27.6464C43.8174 27.6051 43.9757 27.5638 44.1409 27.5225C44.2993 27.4812 44.4645 27.4468 44.6297 27.4124C44.7949 27.378 44.9532 27.3504 45.1185 27.3229C45.2768 27.2954 45.442 27.2678 45.6003 27.2472C45.8275 27.2128 46.0547 27.1921 46.2819 27.1714C46.4471 27.1577 46.6054 27.1439 46.7706 27.137C46.9358 27.1301 47.1011 27.1233 47.2663 27.1233C47.3489 27.1233 47.4315 27.1233 47.5141 27.1233C47.5967 27.1233 47.6793 27.1233 47.7619 27.1233C47.9271 27.1233 48.0924 27.1301 48.2576 27.137C48.4228 27.1439 48.588 27.1577 48.7464 27.1714C48.9735 27.1921 49.2007 27.2128 49.4279 27.2472C49.5931 27.2678 49.7514 27.2885 49.9166 27.3229C50.0819 27.3504 50.2402 27.378 50.4054 27.4124C50.5706 27.4468 50.729 27.4812 50.8873 27.5225C51.0525 27.557 51.2108 27.5983 51.3692 27.6464C51.5275 27.6877 51.6858 27.7359 51.8373 27.7841C52.0576 27.853 52.271 27.9287 52.4844 28.0044C52.6358 28.0595 52.7873 28.1214 52.9387 28.1834C53.0902 28.2454 53.2416 28.3073 53.3931 28.3762C53.5445 28.445 53.696 28.5138 53.8406 28.5827C53.992 28.6515 54.1366 28.7272 54.2811 28.8098C54.4257 28.8856 54.5703 28.9682 54.7079 29.0439L56.8833 25.2714L58.4253 22.6004L58.8935 21.7812C58.6663 21.6367 58.4391 21.5059 58.2119 21.3888Z"
          fill="#2E4F75"/>
    <path fill-rule="evenodd" clip-rule="evenodd"
          d="M49.4491 18.8072L49.3665 19.7503L49.1049 22.8275L48.7332 27.1713C48.568 27.1576 48.4096 27.1438 48.2444 27.1369C48.0792 27.13 47.914 27.1232 47.7488 27.1232C47.6661 27.1232 47.5835 27.1232 47.5009 27.1232C47.4183 27.1232 47.3357 27.1232 47.2531 27.1232C47.0879 27.1232 46.9227 27.13 46.7574 27.1369C46.5922 27.1438 46.427 27.1576 46.2687 27.1713L45.8969 22.8275L45.6353 19.7503L45.5527 18.8072C45.8074 18.7866 46.069 18.7659 46.3238 18.7521L46.3719 19.6953C46.6198 19.6815 46.8745 19.6746 47.1223 19.6677L47.1085 18.7246C47.2393 18.7246 47.3701 18.7246 47.5009 18.7246C47.6317 18.7246 47.7625 18.7246 47.8933 18.7246L47.8796 19.6677C48.1274 19.6746 48.3821 19.6815 48.6299 19.6953L48.6781 18.7521C48.9328 18.7659 49.1944 18.7866 49.4491 18.8072Z"
          fill="#2E4F75"/>
    <path fill-rule="evenodd" clip-rule="evenodd"
          d="M47.2523 27.1165C47.087 27.1165 46.9218 27.1234 46.7566 27.1303L46.5294 22.7796L46.3711 19.6955C46.6189 19.6817 46.8736 19.6749 47.1215 19.668L47.1765 22.7589L47.2523 27.1165Z"
          fill="#2E4F75"/>
    <path fill-rule="evenodd" clip-rule="evenodd"
          d="M48.6223 19.695L48.464 22.7791L48.2437 27.1298C48.0785 27.1229 47.9133 27.116 47.748 27.116L47.8238 22.7584L47.8788 19.6675C48.1267 19.6744 48.3745 19.6812 48.6223 19.695Z"
          fill="#2E4F75"/>
    <path fill-rule="evenodd" clip-rule="evenodd"
          d="M45.5871 27.2407C45.4219 27.2614 45.2635 27.2821 45.1052 27.3165C44.94 27.344 44.7817 27.3715 44.6164 27.406C44.4512 27.4404 44.2929 27.4748 44.1277 27.5161C43.9625 27.5574 43.8041 27.5987 43.6458 27.64C43.4875 27.6813 43.3291 27.7295 43.1777 27.7777L41.8766 23.6197L40.9541 20.6734L40.6719 19.7715C40.9197 19.6958 41.1675 19.6201 41.4154 19.5513L41.6701 20.4599C41.911 20.3911 42.1519 20.3292 42.3929 20.2741L42.1726 19.3585C42.4273 19.2965 42.682 19.2415 42.9436 19.1864L43.1295 20.1089C43.3704 20.0607 43.6183 20.0125 43.8661 19.9712L43.7077 19.0418C43.9625 19.0005 44.2172 18.9592 44.4788 18.9248L44.6027 19.861L45.0088 22.9176L45.5871 27.2407Z"
          fill="#2E4F75"/>
    <path fill-rule="evenodd" clip-rule="evenodd"
          d="M44.1276 27.5091C43.9624 27.5504 43.8041 27.5917 43.6457 27.633L42.4823 23.4337L41.6562 20.4598C41.8972 20.391 42.1381 20.329 42.3791 20.2739L43.1019 23.2754L44.1276 27.5091Z"
          fill="#2E4F75"/>
    <path fill-rule="evenodd" clip-rule="evenodd"
          d="M45.1046 27.3096C44.9394 27.3372 44.7811 27.3647 44.6159 27.3991L43.7485 23.131L43.1289 20.102C43.3698 20.0538 43.6177 20.0057 43.8655 19.9644L44.3818 23.0071L45.1046 27.3096Z"
          fill="#2E4F75"/>
    <path fill-rule="evenodd" clip-rule="evenodd"
          d="M42.5301 27.9907C42.3787 28.0458 42.2272 28.1077 42.0758 28.1697C41.9244 28.2316 41.7729 28.2936 41.6215 28.3624C41.47 28.4313 41.3186 28.5001 41.174 28.569C41.0225 28.6378 40.878 28.7135 40.7334 28.7961C40.5888 28.8719 40.4443 28.9545 40.3066 29.0302L38.1312 25.2577L36.5892 22.5798L36.1211 21.7606C36.3414 21.6298 36.5686 21.5059 36.8026 21.382L37.2432 22.215C37.4635 22.0979 37.6838 21.9809 37.9109 21.8708L37.4979 21.024C37.732 20.907 37.9729 20.7969 38.207 20.6936L38.5925 21.5541C38.8196 21.4508 39.0537 21.3545 39.2809 21.2581L38.9229 20.3838C39.1638 20.2874 39.4048 20.1911 39.6457 20.1016L39.9693 20.9896L41.0294 23.8878L42.5301 27.9907Z"
          fill="#2E4F75"/>
    <path fill-rule="evenodd" clip-rule="evenodd"
          d="M41.1662 28.5692C41.0147 28.6381 40.8702 28.7138 40.7256 28.7964L38.681 24.9482L37.2285 22.2221C37.4488 22.1051 37.6691 21.9881 37.8963 21.8779L39.2524 24.6522L41.1662 28.5692Z"
          fill="#2E4F75"/>
    <path fill-rule="evenodd" clip-rule="evenodd"
          d="M42.0761 28.1698C41.9247 28.2318 41.7733 28.2938 41.6218 28.3626L39.8457 24.3836L38.5859 21.5612C38.8131 21.4579 39.0472 21.3615 39.2743 21.2651L40.4377 24.1289L42.0761 28.1698Z"
          fill="#2E4F75"/>
    <path fill-rule="evenodd" clip-rule="evenodd"
          d="M54.3293 19.7647L54.047 20.6665L53.1246 23.6128L51.8235 27.7708C51.6651 27.7226 51.5137 27.6744 51.3554 27.6331C51.197 27.585 51.0387 27.5436 50.8735 27.5092C50.7152 27.4679 50.5499 27.4335 50.3916 27.3991C50.2264 27.3647 50.068 27.3371 49.9028 27.3096C49.7445 27.2821 49.5793 27.2545 49.4141 27.2339L49.9923 22.9176L50.3985 19.861L50.5224 18.9248C50.784 18.9592 51.0387 18.9936 51.2934 19.0418L51.1351 19.9712C51.3829 20.0125 51.6307 20.0607 51.8717 20.1089L52.0575 19.1795C52.3123 19.2346 52.567 19.2897 52.8217 19.3516L52.6014 20.2672C52.8423 20.3292 53.0901 20.3911 53.3311 20.4531L53.5858 19.5444C53.8336 19.6132 54.0815 19.6889 54.3293 19.7647Z"
          fill="#2E4F75"/>
    <path fill-rule="evenodd" clip-rule="evenodd"
          d="M53.3308 20.453L52.5047 23.4269L51.3413 27.6262C51.1829 27.578 51.0246 27.5367 50.8594 27.5023L51.8782 23.2617L52.601 20.2603C52.8489 20.3291 53.0898 20.3911 53.3308 20.453Z"
          fill="#2E4F75"/>
    <path fill-rule="evenodd" clip-rule="evenodd"
          d="M51.8722 20.1089L51.2526 23.131L50.3853 27.3991C50.22 27.3647 50.0617 27.3371 49.8965 27.3096L50.6193 23.0139L51.1356 19.9712C51.3834 20.0125 51.6313 20.0538 51.8722 20.1089Z"
          fill="#2E4F75"/>
    <path fill-rule="evenodd" clip-rule="evenodd"
          d="M58.8876 21.7606L58.4195 22.5798L56.8774 25.2508L54.7021 29.0233C54.5575 28.9406 54.4198 28.8649 54.2752 28.7892C54.1307 28.7135 53.9861 28.6378 53.8347 28.562C53.6832 28.4863 53.5387 28.4175 53.3872 28.3555C53.2358 28.2867 53.0843 28.2247 52.9329 28.1627C52.7814 28.1008 52.63 28.0388 52.4785 27.9838L53.9792 23.8946L55.0394 20.9964L55.3629 20.1084C55.6039 20.1979 55.8517 20.2943 56.0858 20.3906L55.7278 21.2649C55.9618 21.3613 56.189 21.4577 56.4162 21.5609L56.8017 20.7004C57.0426 20.8037 57.2767 20.9207 57.5108 21.0309L57.0977 21.8776C57.3249 21.9877 57.5452 22.0979 57.7655 22.2218L58.206 21.3888C58.4401 21.5059 58.6673 21.6367 58.8876 21.7606Z"
          fill="#2E4F75"/>
    <path fill-rule="evenodd" clip-rule="evenodd"
          d="M57.7658 22.2216L56.3133 24.9477L54.2687 28.7959C54.1241 28.7202 53.9796 28.6445 53.8281 28.5687L55.7419 24.6517L57.0981 21.8774C57.3252 21.9876 57.5455 22.1046 57.7658 22.2216Z"
          fill="#2E4F75"/>
    <path fill-rule="evenodd" clip-rule="evenodd"
          d="M56.416 21.5612L55.1562 24.3836L53.3801 28.3626C53.2287 28.2938 53.0772 28.2318 52.9258 28.1698L54.5642 24.1289L55.7276 21.2651C55.9616 21.3615 56.1888 21.4579 56.416 21.5612Z"
          fill="#2E4F75"/>
    <path d="M53.6821 44.6638H50.7633C50.7633 42.8671 49.297 41.4008 47.5002 41.4008C45.7035 41.4008 44.2372 42.8671 44.2372 44.6638H41.3184C41.3184 41.2562 44.0926 38.4819 47.5002 38.4819C50.9079 38.4819 53.6821 41.2562 53.6821 44.6638Z"
          fill="#2E4F75"/>
    <path d="M60.0762 38.7575H59.3465V30.7375H35.6516V38.7575H34.9219V30.0078H60.0762V38.7575Z" fill="#2E4F75"/>
    <path d="M56.0088 59.0448H38.9914C36.7472 59.0448 34.916 57.2205 34.916 54.9694V41.043H35.6457V54.9763C35.6457 56.8212 37.1464 58.322 38.9914 58.322H56.0019C57.8468 58.322 59.3475 56.8212 59.3475 54.9763V41.043H60.0772V54.9763C60.0772 57.2205 58.253 59.0448 56.0088 59.0448Z"
          fill="#2E4F75"/>
    <path fill-rule="evenodd" clip-rule="evenodd"
          d="M45.6816 58.6797C46.6867 58.6797 47.499 59.492 47.499 60.4971C47.499 59.492 48.3113 58.6797 49.3164 58.6797"
          fill="#2E4F75"/>
    <path d="M47.8639 60.4972H47.1342C47.1342 59.6986 46.4802 59.0446 45.6816 59.0446V58.3149C46.4389 58.3149 47.1066 58.7004 47.499 59.2925C47.8914 58.7073 48.5592 58.3149 49.3164 58.3149V59.0446C48.5179 59.0446 47.8639 59.6986 47.8639 60.4972Z"
          fill="#2E4F75"/>
    <path d="M35.6238 53.8401L35.0938 53.3375L43.1206 44.7875L35.2796 44.76V44.0303L43.9604 44.0578L44.2289 44.6774L35.6238 53.8401Z"
          fill="#2E4F75"/>
    <path d="M56.9458 30.1888L46.9844 40.7979L47.5163 41.2973L57.4778 30.6883L56.9458 30.1888Z" fill="#2E4F75"/>
    <path d="M59.503 35.2995L52.1992 43.0781L52.7312 43.5776L60.035 35.799L59.503 35.2995Z" fill="#2E4F75"/>
    <path d="M38.3924 58.6658L37.8555 58.1633L50.9627 44.2024L51.2312 44.0923H59.795V44.822H51.3895L38.3924 58.6658Z"
          fill="#2E4F75"/>
    <path d="M29.8636 72.6272C29.8085 72.2899 29.8085 71.9457 29.8636 71.6084L30.5864 71.7254C30.5451 71.987 30.5451 72.2486 30.5864 72.5102L29.8636 72.6272Z"
          fill="#2E4F75"/>
    <path fill-rule="evenodd" clip-rule="evenodd"
          d="M33.3186 62.3763C33.3186 62.8169 33.1534 63.2575 32.7748 63.6155L31.1639 65.1299C31.04 65.247 30.923 65.3709 30.8266 65.4948H19.5918L20.5625 63.1473L19.5918 60.6553H31.6045C32.6371 60.6484 33.3186 61.5021 33.3186 62.3763Z"
          fill="#2E4F75"/>
    <path d="M30.8191 65.8597H19.5912L19.2539 65.3572L20.1695 63.1405L19.2539 60.7862L19.5912 60.2905H31.6039C32.905 60.2905 33.6829 61.3507 33.6829 62.3833C33.6829 62.9547 33.4488 63.4847 33.022 63.884L31.4112 65.3985C31.301 65.5018 31.1977 65.6119 31.1083 65.7289L30.8191 65.8597ZM20.1351 65.13H30.6539C30.7365 65.0405 30.8191 64.951 30.9155 64.8615L32.5333 63.347C32.8912 63.0166 32.9601 62.638 32.9601 62.3764C32.9601 61.7086 32.4575 61.0134 31.6108 61.0134H20.1213L20.8992 63.0097V63.2782L20.1351 65.13Z"
          fill="#2E4F75"/>
    <path d="M31.1919 70.0176C30.4828 69.4738 30.0009 68.6615 29.8632 67.7941C29.7187 66.8923 29.9596 65.9973 30.5379 65.2676L31.1093 65.722C30.5379 66.4448 30.5103 67.1814 30.5861 67.677C30.6825 68.2691 30.9785 68.8198 31.4122 69.2397L32.3484 68.3723C32.7339 68.0144 32.9611 67.5049 32.9611 66.9749V62.3281H33.6908V66.9749C33.6908 67.7046 33.381 68.4136 32.844 68.9093L31.6669 69.997L31.1919 70.0176Z"
          fill="#2E4F75"/>
    <path d="M65.1447 72.6268L64.4219 72.5098C64.4632 72.2413 64.4632 71.9797 64.4219 71.725L65.1447 71.6011C65.1998 71.9384 65.1998 72.2826 65.1447 72.6268Z"
          fill="#2E4F75"/>
    <path fill-rule="evenodd" clip-rule="evenodd"
          d="M74.4437 63.1478L75.4143 65.4953H64.1864C64.0832 65.3714 63.973 65.2475 63.8491 65.1305L62.2313 63.616C61.8527 63.2649 61.6875 62.8174 61.6875 62.3768C61.6875 61.4957 62.369 60.6489 63.4016 60.6489H75.4143L74.4437 63.1478Z"
          fill="#2E4F75"/>
    <path d="M75.4139 65.8597H64.186L63.9038 65.7221C63.8143 65.6119 63.711 65.5018 63.6009 65.3916L61.9831 63.884C61.5563 63.4847 61.3223 62.9478 61.3223 62.3833C61.3223 61.3576 62.1002 60.2905 63.4012 60.2905H75.4139L75.7513 60.7862L74.8357 63.1405L75.7513 65.3572L75.4139 65.8597ZM64.3581 65.13H74.8701L74.106 63.2851V63.0166L74.8839 61.0202H63.4012C62.5545 61.0202 62.052 61.7155 62.052 62.3833C62.052 62.6449 62.1277 63.0235 62.4788 63.3539L64.0965 64.8684C64.186 64.9442 64.2755 65.0405 64.3581 65.13Z"
          fill="#2E4F75"/>
    <path d="M65.1444 67.794L64.4216 67.677C64.5042 67.1813 64.4767 66.4448 63.8984 65.7219L64.4698 65.2676C65.0481 65.9904 65.289 66.8922 65.1444 67.794Z"
          fill="#2E4F75"/>
    <path fill-rule="evenodd" clip-rule="evenodd"
          d="M64.7856 67.7319V72.5714C64.5033 74.3544 62.6102 75.8345 60.5381 74.8707L57.337 73.3837C54.604 72.1171 51.6301 71.4562 48.6149 71.4562H46.3982C43.383 71.4562 40.4091 72.1171 37.6693 73.3837L34.4682 74.8707C32.4029 75.8345 30.5029 74.3544 30.2207 72.5714V67.7319C30.3446 68.5167 30.7852 69.2464 31.4116 69.7283C32.2102 70.341 33.3116 70.5682 34.4613 70.0312L37.6624 68.5442C40.3953 67.2776 43.3761 66.6167 46.3914 66.6167H48.608C51.6232 66.6167 54.5972 67.2707 57.3301 68.5442L60.5312 70.0312C61.6877 70.5682 62.7892 70.341 63.5809 69.7283C64.2211 69.2464 64.6548 68.5167 64.7856 67.7319Z"
          fill="#2E4F75"/>
    <path d="M33.154 75.5386C32.6377 75.5386 32.1351 75.4146 31.6601 75.1599C30.717 74.6574 30.0286 73.6867 29.8565 72.6266L29.8496 72.5715V67.732L30.5724 67.677C30.6826 68.3654 31.0681 69.0125 31.6257 69.4393C32.3967 70.0382 33.3742 70.1346 34.3036 69.7009L37.5047 68.2139C40.2652 66.9335 43.3355 66.252 46.3851 66.252H48.6018C51.6514 66.252 54.7217 66.9266 57.4822 68.2139L60.6833 69.7009C61.6126 70.1277 62.5833 70.0382 63.3612 69.4393C63.9188 69.0125 64.3043 68.3654 64.4144 67.677L65.1373 67.732L65.1304 72.6266C64.9652 73.6867 64.2699 74.6574 63.3268 75.1599C62.4112 75.6487 61.3648 75.6625 60.3666 75.2012L57.1655 73.7143C54.4945 72.4751 51.5344 71.8212 48.5949 71.8212H46.3989C43.4594 71.8212 40.4924 72.4751 37.8282 73.7143L34.6271 75.2012C34.1384 75.4284 33.6427 75.5386 33.154 75.5386ZM30.5862 72.5371C30.7239 73.3632 31.2677 74.1204 32.0043 74.5128C32.7134 74.8914 33.5326 74.8983 34.3105 74.5335L37.5116 73.0465C40.2721 71.7661 43.3424 71.0846 46.392 71.0846H48.6087C51.6514 71.0846 54.7217 71.7661 57.4891 73.0465L60.6902 74.5335C61.475 74.8983 62.2942 74.8914 62.9963 74.5128C63.7329 74.1204 64.2768 73.3632 64.4144 72.5371V69.4186C64.2355 69.6389 64.0358 69.8385 63.8087 70.0175C62.8105 70.7817 61.5644 70.9125 60.3804 70.3617L57.1793 68.8748C54.5152 67.6357 51.5481 66.9817 48.6087 66.9817H46.3989C43.4594 66.9817 40.4924 67.6357 37.8282 68.8748L34.6271 70.3617C33.4431 70.9125 32.1971 70.7885 31.1989 70.0175C30.9717 69.8454 30.7721 69.6458 30.5931 69.4186V72.5371H30.5862Z"
          fill="#2E4F75"/>
    <path d="M63.3334 69.9901L62.4936 69.1778C61.7432 68.4481 61.3164 67.4361 61.3164 66.3898V62.3213H62.0461V66.3898C62.0461 67.2365 62.3972 68.0626 63.003 68.6546L63.8429 69.4669L63.3334 69.9901Z"
          fill="#2E4F75"/>
    <path fill-rule="evenodd" clip-rule="evenodd"
          d="M30.834 35.5839L32.6445 35.9143C33.2985 36.0314 33.9043 35.5357 33.9112 34.868L33.9249 33.4292L33.505 32.2176L35.288 30.9165V34.1727C35.288 35.8042 34.4275 37.3187 33.03 38.1585L32.6101 38.4132"
          fill="#2E4F75"/>
    <path d="M32.7963 38.7299L32.4177 38.1035L32.8376 37.8488C34.1181 37.0777 34.9166 35.6734 34.9166 34.1796V31.6393L33.9391 32.3553L34.2695 33.3122L34.2902 33.4361L34.2764 34.8749C34.2695 35.3017 34.0768 35.7009 33.7532 35.9694C33.4228 36.2379 32.996 36.348 32.5829 36.2723L30.7793 35.9419L30.9101 35.2259L32.7206 35.5564C32.9271 35.5977 33.1336 35.5426 33.2989 35.4049C33.4641 35.2741 33.5536 35.0745 33.5605 34.868L33.5742 33.498L33.1749 32.3484L33.3057 31.9354L35.0887 30.6343L35.667 30.9303V34.1864C35.667 35.935 34.7307 37.5872 33.23 38.4821L32.7963 38.7299Z"
          fill="#2E4F75"/>
    <path fill-rule="evenodd" clip-rule="evenodd"
          d="M23.4598 48.5048H23.3428C22.3859 48.5048 21.6011 47.7269 21.6011 46.7631C21.6011 46.3914 21.7181 46.0265 21.9453 45.7305L23.0812 44.1954C23.9761 42.9838 24.4649 41.5175 24.4649 40.0099C24.4649 38.6881 24.0931 37.387 23.391 36.2649L21.8696 33.8486C21.7044 33.587 21.4221 33.4287 21.1192 33.4287C20.596 33.4287 20.1899 33.8762 20.2312 34.3925L20.3482 35.8037C20.5754 38.516 20.3551 41.2421 19.7149 43.8856C19.3431 45.4139 19.1504 46.9903 19.1504 48.5668C19.1504 49.7784 20.1279 50.7559 21.3395 50.7559H23.2808"
          fill="#2E4F75"/>
    <path d="M23.2746 51.1209H21.3333C19.922 51.1209 18.7793 49.9781 18.7793 48.5669C18.7793 46.9629 18.9721 45.3589 19.3507 43.8031C19.9909 41.194 20.1974 38.5161 19.9771 35.8382L19.8601 34.427C19.8326 34.0759 19.9496 33.7317 20.1905 33.4701C20.4315 33.2085 20.7619 33.064 21.113 33.064C21.5467 33.064 21.946 33.2843 22.1731 33.6491L23.6945 36.0654C24.438 37.2495 24.8304 38.6056 24.8304 40.0031C24.8304 41.5795 24.3141 43.1422 23.3778 44.4089L22.242 45.944C22.063 46.185 21.9735 46.4672 21.9735 46.7632C21.9735 47.5205 22.5931 48.1401 23.3503 48.1401H23.4673V48.8698H23.3503C22.1938 48.8698 21.2438 47.9266 21.2438 46.7632C21.2438 46.3089 21.3884 45.8752 21.6568 45.5103L22.7927 43.9752C23.6394 42.8324 24.1007 41.4212 24.1007 40.0031C24.1007 38.7433 23.7496 37.518 23.0818 36.4578L21.5605 34.0415C21.4641 33.8901 21.2989 33.7937 21.113 33.7937C20.9615 33.7937 20.8307 33.8556 20.7275 33.9658C20.6242 34.0759 20.576 34.2136 20.5898 34.3651L20.7068 35.7763C20.934 38.5299 20.7206 41.2904 20.0597 43.9752C19.6949 45.4759 19.509 47.018 19.509 48.5669C19.509 49.5719 20.3282 50.3911 21.3333 50.3911H23.2746V51.1209Z"
          fill="#2E4F75"/>
    <path d="M24.225 61.0135H23.1992C22.8206 61.0135 22.4627 60.8621 22.1942 60.5936L21.5195 59.919C21.2511 59.6505 21.0996 59.2925 21.0996 58.9139V56.5871C21.0996 56.2085 21.2511 55.8505 21.5195 55.582C22.4213 54.6802 22.917 53.4824 22.917 52.2088V50.2744C22.917 48.4777 23.4608 46.7429 24.4797 45.2628L25.0579 44.423C27.5224 40.8639 27.0819 36.0588 24.0253 32.9954L22.8482 31.8182C21.8224 30.7925 21.8224 29.1335 22.8482 28.1077L22.9858 27.9701C23.8739 27.082 25.2713 26.9512 26.3108 27.6534L29.0369 29.4914C29.3742 29.7186 29.5739 30.0972 29.5739 30.5103C29.5739 31.1849 29.0232 31.7356 28.3485 31.7356H27.2264C29.9594 33.5737 32.1279 36.2172 33.3877 39.2599L33.6148 39.8106L34.6268 38.7987C35.4116 38.0139 36.6851 38.0139 37.463 38.7987L38.1377 39.4733L37.9655 40.086L36.3547 40.4922L34.7094 42.1374C34.317 42.5298 33.7938 42.7501 33.2362 42.7501C32.9264 42.7501 32.6304 42.6813 32.3619 42.5574L31.6735 43.2458C29.4155 45.5038 28.1764 48.4983 28.1764 51.6925C28.1764 54.4048 26.0699 56.6284 23.4058 56.8143V58.1773H24.2181C25.0029 58.1773 25.6431 58.8175 25.6431 59.6023C25.65 60.3802 25.0098 61.0135 24.225 61.0135ZM24.8377 27.9288C24.3489 27.9288 23.8601 28.1146 23.4953 28.4795L23.3576 28.6172C22.621 29.3538 22.621 30.5585 23.3576 31.2951L24.5348 32.4722C27.846 35.7835 28.3141 40.9809 25.65 44.8291L25.0717 45.669C24.1355 47.0251 23.6398 48.6153 23.6398 50.2675V52.2019C23.6398 53.6682 23.0684 55.0519 22.029 56.0914C21.8982 56.2222 21.8224 56.3943 21.8224 56.5871V58.9139C21.8224 59.0998 21.8982 59.2719 22.029 59.4096L22.7036 60.0842C22.8344 60.215 23.0065 60.2907 23.1924 60.2907H24.2112C24.5967 60.2907 24.9065 59.9809 24.9065 59.5954C24.9065 59.2099 24.5967 58.9001 24.2112 58.9001H23.034L22.6692 58.5353V56.4494L23.034 56.0846C25.4641 56.0846 27.4398 54.1088 27.4398 51.6788C27.4398 48.2918 28.7547 45.1114 31.1503 42.7157L31.7492 42.1168L30.1315 40.499L30.6478 39.9827L32.2724 41.6074C32.5271 41.8621 32.8645 42.0067 33.2293 42.0067C33.5873 42.0067 33.9315 41.869 34.1862 41.6074L35.9072 39.8864L36.0793 39.79L37.1601 39.5146L36.9398 39.2943C36.4442 38.7987 35.6319 38.7987 35.1362 39.2943L33.7387 40.6918L33.1467 40.5748L32.7061 39.5215C31.3982 36.3617 29.0645 33.6563 26.1319 31.894L25.7532 31.6668L25.9391 30.9922H28.3279C28.6032 30.9922 28.8235 30.7719 28.8235 30.4965C28.8235 30.3313 28.7409 30.1798 28.6032 30.0835L25.8771 28.2454C25.5742 28.032 25.2025 27.9288 24.8377 27.9288Z"
          fill="#2E4F75"/>
    <path fill-rule="evenodd" clip-rule="evenodd"
          d="M28.8982 46.605C28.8982 47.6927 29.3319 48.7322 30.0961 49.5032L30.9634 50.3706C31.7826 51.1898 32.1682 52.3463 31.9961 53.4959L31.5348 56.5869H33.1732C33.6482 56.5869 34.0406 56.9724 34.0406 57.4543C34.0406 57.9293 33.6551 58.3217 33.1732 58.3217H32.2921C31.5968 58.3217 30.9566 57.9706 30.5711 57.3923C30.3508 57.055 30.2337 56.6626 30.2337 56.2633V55.2032C30.2337 54.3427 29.8413 53.5235 29.1667 52.9934L27.8105 51.8369"
          fill="#2E4F75"/>
    <path d="M33.1729 58.6797H32.2918C31.4725 58.6797 30.7153 58.2736 30.2678 57.5852C30.0062 57.1859 29.8686 56.7315 29.8686 56.2565V55.1964C29.8686 54.4391 29.5312 53.737 28.9392 53.2688L27.5762 52.1054L28.0512 51.5478L29.4073 52.7044C30.1646 53.3033 30.6052 54.212 30.6052 55.1964V56.2565C30.6052 56.587 30.7015 56.9105 30.8805 57.1859C31.1972 57.6609 31.7204 57.95 32.2918 57.95H33.1729C33.4483 57.95 33.6754 57.7228 33.6754 57.4475C33.6754 57.1721 33.4483 56.9449 33.1729 56.9449H31.5345L31.1765 56.525L31.6378 53.4341C31.7892 52.4083 31.445 51.3551 30.7084 50.6185L29.841 49.7511C29.0012 48.9112 28.5331 47.7891 28.5331 46.5913H29.2628C29.2628 47.5895 29.6483 48.5257 30.3573 49.2348L31.2247 50.1022C32.1197 50.9971 32.5465 52.2844 32.3606 53.5373L31.9613 56.2083H33.1798C33.8544 56.2083 34.412 56.7591 34.412 57.4406C34.4052 58.129 33.8544 58.6797 33.1729 58.6797Z"
          fill="#2E4F75"/>
    <path fill-rule="evenodd" clip-rule="evenodd"
          d="M23.1719 27.8737L24.5487 26.4969C24.8172 26.2284 25.2715 26.4212 25.2715 26.7929V27.619L23.1719 27.8737Z"
          fill="#2E4F75"/>
    <path fill-rule="evenodd" clip-rule="evenodd"
          d="M25.0996 27.4539L25.6297 26.9238C25.8569 26.6966 26.2424 26.855 26.2424 27.1785V27.8738L25.0996 27.4539Z"
          fill="#2E4F75"/>
    <path fill-rule="evenodd" clip-rule="evenodd" d="M25.7536 28.7959L26.9377 29.5807L25.0996 29.1883L25.7536 28.7959Z"
          fill="#2E4F75"/>
    <path fill-rule="evenodd" clip-rule="evenodd"
          d="M62.3888 38.4132L61.9689 38.1585C60.5714 37.3187 59.7109 35.8111 59.7109 34.1727V30.9165L61.4939 32.2176L61.074 33.4292L61.0877 34.868C61.0946 35.5357 61.7004 36.0314 62.3544 35.9143L64.1649 35.5839"
          fill="#2E4F75"/>
    <path d="M62.2026 38.73L61.7827 38.4753C60.2819 37.5735 59.3457 35.9282 59.3457 34.1796V30.9235L59.924 30.6274L61.7069 31.9285L61.8377 32.3416L61.4385 33.4912L61.4522 34.868C61.4522 35.0745 61.5486 35.2742 61.7138 35.405C61.8722 35.5358 62.0856 35.5908 62.2921 35.5564L64.1026 35.226L64.2334 35.9419L62.4229 36.2724C62.0029 36.3481 61.5761 36.2379 61.2526 35.9695C60.9222 35.701 60.7294 35.3017 60.7294 34.8749L60.7156 33.4361L60.7363 33.3122L61.0598 32.3553L60.0754 31.6394V34.1796C60.0754 35.6735 60.874 37.0847 62.1544 37.8488L62.5743 38.1035L62.2026 38.73Z"
          fill="#2E4F75"/>
    <path fill-rule="evenodd" clip-rule="evenodd"
          d="M71.5383 48.5048H71.6553C72.6122 48.5048 73.397 47.7269 73.397 46.7631C73.397 46.3914 73.28 46.0265 73.0528 45.7305L71.9169 44.1954C71.022 42.9838 70.5332 41.5175 70.5332 40.0099C70.5332 38.6881 70.9049 37.387 71.6071 36.2649L73.1285 33.8486C73.2937 33.587 73.576 33.4287 73.8789 33.4287C74.4021 33.4287 74.8082 33.8762 74.7669 34.3925L74.6499 35.8037C74.4227 38.516 74.643 41.2421 75.2832 43.8856C75.655 45.4139 75.8477 46.9903 75.8477 48.5668C75.8477 49.7784 74.8702 50.7559 73.6586 50.7559H71.7173"
          fill="#2E4F75"/>
    <path d="M73.6651 51.1209H71.7238V50.3911H73.6651C74.6701 50.3911 75.4893 49.5719 75.4893 48.5669C75.4893 47.018 75.3035 45.4759 74.9386 43.9752C74.2846 41.2904 74.0643 38.5368 74.2915 35.7763L74.4085 34.3651C74.4223 34.2205 74.3741 34.0759 74.2709 33.9658C74.1676 33.8556 74.0299 33.7937 73.8854 33.7937C73.7064 33.7937 73.5343 33.8832 73.4379 34.0415L71.9165 36.4578C71.2488 37.5248 70.8977 38.7502 70.8977 40.0031C70.8977 41.4212 71.3658 42.8324 72.2056 43.9752L73.3415 45.5103C73.61 45.8752 73.7546 46.3089 73.7546 46.7632C73.7546 47.9198 72.8114 48.8698 71.648 48.8698H71.531V48.1401H71.648C72.4053 48.1401 73.0249 47.5205 73.0249 46.7632C73.0249 46.4672 72.9285 46.185 72.7564 45.944L71.6205 44.4089C70.6843 43.1422 70.168 41.5795 70.168 40.0031C70.168 38.6056 70.5604 37.2495 71.3038 36.0654L72.8252 33.6491C73.0593 33.2843 73.4517 33.064 73.8854 33.064C74.2364 33.064 74.5738 33.2085 74.8078 33.4701C75.0419 33.7248 75.1658 34.0759 75.1383 34.427L75.0212 35.8382C74.8009 38.5161 75.0075 41.194 75.6477 43.8031C76.0263 45.3589 76.2191 46.9629 76.2191 48.5669C76.2191 49.9712 75.0694 51.1209 73.6651 51.1209Z"
          fill="#2E4F75"/>
    <path d="M71.7997 61.0134H70.7809C69.9961 61.0134 69.3559 60.3732 69.3559 59.5884C69.3559 58.8036 69.9961 58.1634 70.7809 58.1634H71.5932V56.8004C68.9291 56.6145 66.8226 54.3841 66.8226 51.6786C66.8226 48.4913 65.5834 45.4899 63.3255 43.2319L62.6371 42.5435C62.3686 42.6674 62.0657 42.7362 61.7628 42.7362C61.2052 42.7362 60.682 42.5228 60.2896 42.1236L58.6443 40.4783L57.0334 40.0721L56.8613 39.4594L57.536 38.7848C58.3208 38 59.5943 38 60.3722 38.7848L61.3842 39.7967L61.6113 39.246C62.8711 36.2033 65.0465 33.5598 67.7726 31.7217H66.6505C65.9758 31.7217 65.4251 31.171 65.4251 30.4964C65.4251 30.0902 65.6247 29.7116 65.962 29.4775L68.6881 27.6395C69.7276 26.9373 71.1251 27.075 72.0131 27.9562L72.1508 28.0938C73.1765 29.1196 73.1765 30.7786 72.1508 31.8044L70.9736 32.9815C67.9102 36.0449 67.4765 40.8431 69.941 44.4091L70.5193 45.2489C71.545 46.729 72.082 48.4638 72.082 50.2605V52.1949C72.082 53.4685 72.5776 54.6663 73.4794 55.5681C73.7479 55.8366 73.8994 56.1946 73.8994 56.5732V58.9C73.8994 59.2786 73.7479 59.6366 73.4794 59.9051L72.8048 60.5797C72.5363 60.8688 72.1784 61.0134 71.7997 61.0134ZM70.774 58.8931C70.3885 58.8931 70.0787 59.2029 70.0787 59.5884C70.0787 59.9739 70.3885 60.2837 70.774 60.2837H71.7928C71.9787 60.2837 72.1508 60.208 72.2816 60.0772L72.97 59.4094C73.1008 59.2786 73.1765 59.1065 73.1765 58.9138V56.587C73.1765 56.4011 73.1008 56.229 72.97 56.0913C71.9305 55.0518 71.3592 53.6681 71.3592 52.2018V50.2674C71.3592 48.6152 70.8635 47.025 69.9273 45.6688L69.349 44.829C66.6849 40.9808 67.1599 35.7833 70.4642 32.4721L71.6414 31.2949C72.378 30.5583 72.378 29.3536 71.6414 28.617L71.5037 28.4794C70.8635 27.8391 69.8584 27.7428 69.1081 28.2522L66.382 30.0902C66.2443 30.1797 66.1617 30.338 66.1617 30.5033C66.1617 30.7786 66.382 30.9989 66.6573 30.9989H69.0461L69.232 31.6736L68.8534 31.9007C65.9276 33.663 63.5871 36.3685 62.2791 39.5283L61.8385 40.5815L61.2465 40.6986L59.849 39.3011C59.3534 38.8054 58.541 38.8054 58.0454 39.3011L57.8251 39.5214L58.9059 39.7967L59.078 39.8931L60.799 41.6141C61.0537 41.8688 61.391 42.0134 61.7559 42.0134C62.1207 42.0134 62.4581 41.8757 62.7128 41.6141L64.3374 39.9895L64.8537 40.5058L63.236 42.1236L63.8349 42.7225C66.2305 45.1181 67.5454 48.2986 67.5454 51.6855C67.5454 54.1156 69.5211 56.0913 71.9512 56.0913L72.316 56.4562V58.5351L71.9512 58.9H70.774V58.8931Z"
          fill="#2E4F75"/>
    <path fill-rule="evenodd" clip-rule="evenodd"
          d="M66.0994 46.6055C66.0994 47.6932 65.6657 48.7326 64.9016 49.5037L64.0342 50.3711C63.215 51.1903 62.8295 52.3468 63.0016 53.4964L63.4628 56.5874H61.8244C61.3494 56.5874 60.957 56.9729 60.957 57.4548C60.957 57.9298 61.3425 58.3221 61.8244 58.3221H62.7056C63.4009 58.3221 64.0411 57.9711 64.4266 57.3928C64.6469 57.0555 64.7639 56.6631 64.7639 56.2638V55.2037C64.7639 54.3432 65.1563 53.524 65.8309 52.9939L67.1871 51.8374"
          fill="#2E4F75"/>
    <path d="M62.7052 58.6802H61.824C61.1494 58.6802 60.5918 58.1294 60.5918 57.4479C60.5918 56.7733 61.1425 56.2157 61.824 56.2157H63.0425L62.6432 53.5446C62.4574 52.2917 62.8842 51.0044 63.7791 50.1095L64.6465 49.2421C65.3487 48.5399 65.7411 47.5968 65.7411 46.5986H66.4708C66.4708 47.7896 66.0096 48.9117 65.1628 49.7584L64.2954 50.6258C63.5588 51.3624 63.2146 52.4157 63.3661 53.4414L63.8273 56.5323L63.4693 56.9523H61.8309C61.5556 56.9523 61.3284 57.1794 61.3284 57.4548C61.3284 57.7302 61.5556 57.9573 61.8309 57.9573H62.7121C63.2835 57.9573 63.8135 57.6751 64.1233 57.1932C64.3023 56.9178 64.3987 56.5943 64.3987 56.2639V55.2037C64.3987 54.2262 64.8393 53.3175 65.6034 52.7048L66.9458 51.5552L67.4208 52.1128L66.0646 53.2693C65.4657 53.7443 65.1215 54.4465 65.1215 55.2037V56.2639C65.1215 56.7389 64.9838 57.1932 64.7222 57.5925C64.2817 58.2671 63.5244 58.6802 62.7052 58.6802Z"
          fill="#2E4F75"/>
    <path fill-rule="evenodd" clip-rule="evenodd"
          d="M71.8282 27.8737L70.4513 26.4969C70.1829 26.2284 69.7285 26.4212 69.7285 26.7929V27.619L71.8282 27.8737Z"
          fill="#2E4F75"/>
    <path fill-rule="evenodd" clip-rule="evenodd"
          d="M69.9006 27.4539L69.3705 26.9238C69.1433 26.6966 68.7578 26.855 68.7578 27.1785V27.8738L69.9006 27.4539Z"
          fill="#2E4F75"/>
    <path fill-rule="evenodd" clip-rule="evenodd" d="M69.2466 28.7964L68.0625 29.5812L69.9005 29.1888L69.2466 28.7964Z"
          fill="#2E4F75"/>
    <path d="M56.5996 64.5586C56.042 64.5586 55.4844 64.4003 54.9888 64.0768L52.5312 62.4728C51.8221 62.0115 50.8996 61.9909 50.1699 62.4315L49.9428 62.5691C48.4351 63.471 46.5627 63.471 45.0551 62.5691L44.8279 62.4315C44.1051 61.9978 43.1757 62.0115 42.4667 62.4728L40.0091 64.0768C38.7562 64.896 37.0833 64.6481 36.1264 63.4916L35.5 62.7413L36.0576 62.2731L36.6841 63.0235C37.4069 63.8909 38.6598 64.0768 39.6029 63.4641L42.0605 61.8601C43.0036 61.2474 44.229 61.2199 45.1928 61.7981L45.4199 61.9358C46.6935 62.6999 48.2837 62.6999 49.5572 61.9358L49.7844 61.7981C50.7482 61.2199 51.9736 61.2405 52.9167 61.8601L55.3743 63.4641C56.3174 64.0836 57.5772 63.8909 58.2931 63.0235L58.9196 62.2731L59.4772 62.7413L58.8507 63.4916C58.2931 64.1938 57.4533 64.5586 56.5996 64.5586Z"
          fill="#2E4F75"/>
    <path d="M56.5516 63.8291H38.4121V64.5588H56.5516V63.8291Z" fill="#2E4F75"/>
    <path d="M9.85777 35.8179L7.28314 35.1226L6.71864 37.2016L9.29328 37.8969L8.96973 39.0947L2.82227 37.4288L3.14582 36.231L5.6585 36.9125L6.22299 34.8335L3.71031 34.1451L4.03386 32.9473L10.1813 34.6132L9.85777 35.8179Z"
          fill="#2E4F75"/>
    <path d="M9.85082 27.8258C10.615 28.1631 11.3722 28.5073 11.7026 29.3472C11.9436 29.9461 11.9229 30.5725 11.6407 31.199C11.3584 31.8254 10.8972 32.2729 10.2983 32.4932C9.46531 32.803 8.59792 32.4243 7.96459 32.1421L7.4827 31.9287C6.3193 31.4124 5.90625 31.0819 5.65154 30.428C5.41749 29.8359 5.43814 29.1957 5.7135 28.5693C5.98886 27.9497 6.4501 27.5091 7.04901 27.2819C7.64792 27.0548 8.28125 27.1305 9.22437 27.5504L9.85082 27.8258ZM7.36567 28.4247C7.08343 28.5142 6.86314 28.7207 6.73234 29.0167C6.60154 29.3127 6.58778 29.6225 6.71857 29.891C6.89068 30.2834 7.42763 30.5381 8.15046 30.8617L8.44647 30.9924C9.05227 31.2609 9.60299 31.495 9.99539 31.3435C10.2776 31.2334 10.5048 31.0406 10.6356 30.7446C10.7664 30.4486 10.7733 30.1457 10.6494 29.8772C10.4842 29.5193 10.2226 29.3403 9.03162 28.8171C8.06785 28.3972 7.72365 28.3077 7.36567 28.4247Z"
          fill="#2E4F75"/>
    <path d="M12.9971 22.7037C13.3964 22.6279 13.7613 22.7243 14.1399 22.9653C15.083 23.5642 15.2757 24.583 14.6286 25.595L13.1968 27.8461L7.82031 24.4178L9.19712 22.2562C9.84423 21.2442 10.8286 20.962 11.7373 21.5403C12.2536 21.8707 12.4877 22.325 12.4533 22.9308C12.6942 22.7863 12.8113 22.745 12.9971 22.7037ZM11.3174 23.7225C11.5928 23.2888 11.5239 22.8758 11.1384 22.6348C10.7529 22.3939 10.3536 22.504 10.0783 22.9377L9.4243 23.9634L10.6634 24.7551L11.3174 23.7225ZM13.6236 25.0993C13.8989 24.6656 13.8163 24.2319 13.4033 23.9703C12.9971 23.7087 12.5703 23.8258 12.3018 24.2526L11.6065 25.3471L12.9283 26.187L13.6236 25.0993Z"
          fill="#2E4F75"/>
    <path d="M17.2308 17.5341C17.8572 18.0779 18.4837 18.6355 18.5594 19.5305C18.6145 20.1707 18.408 20.7627 17.9605 21.2859C17.5062 21.8091 16.9348 22.0913 16.3015 22.1326C15.4134 22.1808 14.6975 21.5681 14.1743 21.1138L13.7681 20.7627C12.8112 19.9297 12.5152 19.496 12.4601 18.7939C12.412 18.1536 12.6116 17.5547 13.0659 17.0315C13.5134 16.5152 14.0848 16.233 14.7181 16.1917C15.3583 16.1504 15.9366 16.412 16.7145 17.0866L17.2308 17.5341ZM14.6837 17.3826C14.3877 17.3826 14.1123 17.5203 13.9058 17.7613C13.6924 18.0022 13.596 18.2982 13.6304 18.5942C13.6786 19.0142 14.1192 19.4203 14.7112 19.9366L14.9522 20.15C15.4547 20.5837 15.9091 20.9692 16.329 20.9417C16.6319 20.921 16.9004 20.7971 17.1138 20.5562C17.3272 20.3152 17.4167 20.0261 17.3822 19.7301C17.3272 19.3377 17.1275 19.0968 16.15 18.2431C15.3583 17.5547 15.0554 17.3757 14.6837 17.3826Z"
          fill="#2E4F75"/>
    <path d="M22.0834 17.1894C21.5533 17.6437 20.9544 17.8296 20.328 17.7814C19.4193 17.7126 18.9099 17.0999 18.1939 16.26C17.478 15.4271 16.941 14.835 17.0099 13.9264C17.058 13.293 17.3265 12.7285 17.8566 12.2742C18.7584 11.4963 19.908 11.4068 20.9475 12.2742L19.9907 13.1003C19.5638 12.7974 19.0613 12.7079 18.5863 13.114C18.3247 13.3343 18.2008 13.6097 18.2008 13.885C18.1939 14.243 18.3385 14.5253 19.137 15.4546C19.9356 16.384 20.1903 16.5698 20.5483 16.6111C20.8167 16.6524 21.1128 16.5629 21.3675 16.3427C21.8425 15.9365 21.8287 15.4271 21.5946 14.959L22.5515 14.1329C23.2468 15.2894 22.9783 16.4184 22.0834 17.1894Z"
          fill="#2E4F75"/>
    <path d="M27.7978 13.0316L25.6293 9.56204L25.6982 14.3465L24.7551 14.9385L21.375 9.54139L22.4283 8.88052L24.5899 12.3363L24.5279 7.56566L25.471 6.97363L28.8511 12.3707L27.7978 13.0316Z"
          fill="#2E4F75"/>
    <path d="M32.61 10.6496L30.2626 11.6478L27.7637 5.78254L31.6394 4.13037L32.0731 5.14921L29.3401 6.31262L29.8427 7.49668L31.0474 6.98725C32.2245 6.48472 33.2709 6.93218 33.7253 8.0061C34.1865 9.08689 33.7941 10.147 32.61 10.6496ZM31.426 8.04052L30.2832 8.52928L30.9716 10.1402L32.1144 9.65139C32.6238 9.4311 32.7959 8.98363 32.5825 8.49486C32.3829 8.02675 31.9354 7.82711 31.426 8.04052Z"
          fill="#2E4F75"/>
    <path d="M39.2519 8.54284L38.2606 4.57762L36.8494 9.14175L35.7755 9.41023L34.2266 3.23523L35.4313 2.93233L36.4226 6.89067L37.8338 2.33342L38.9077 2.06494L40.4566 8.23994L39.2519 8.54284Z"
          fill="#2E4F75"/>
    <path d="M43.8932 1.42517C45.1116 1.30814 46.0616 2.05162 46.1718 3.20814C46.2819 4.36466 45.4903 5.26647 44.2649 5.3835L43.0464 5.50053L43.2667 7.8893L42.0276 8.00633L41.4355 1.66611L43.8932 1.42517ZM44.0997 4.27517C44.6504 4.22698 44.9877 3.84836 44.9395 3.32517C44.8913 2.80198 44.4921 2.48531 43.9413 2.54038L42.7848 2.65053L42.9432 4.38531L44.0997 4.27517Z"
          fill="#2E4F75"/>
    <path d="M49.8193 7.73765C49.1241 7.70323 48.5596 7.42787 48.1396 6.95975C47.527 6.28512 47.582 5.49345 47.6371 4.392C47.6922 3.29055 47.7128 2.49889 48.3875 1.8862C48.8556 1.45939 49.4407 1.2391 50.136 1.27352C51.327 1.3286 52.2219 2.05831 52.3802 3.4007L51.1204 3.33874C51.0172 2.82244 50.7143 2.41628 50.0878 2.38186C49.7505 2.36809 49.4683 2.47823 49.2755 2.67099C49.0277 2.9257 48.9382 3.2286 48.8762 4.45396C48.8143 5.67932 48.8762 5.9891 49.1034 6.26447C49.2755 6.47787 49.544 6.61555 49.8813 6.6362C50.5078 6.66374 50.8451 6.292 50.9965 5.78258L52.2563 5.84454C51.9741 7.16628 51.0034 7.79961 49.8193 7.73765Z"
          fill="#2E4F75"/>
    <path d="M53.3379 7.96508L54.5564 1.71436L55.7748 1.9553L55.1966 4.92233L57.7919 2.34769L59.2513 2.62994L56.5803 5.15638L58.2393 8.92885L56.7455 8.63972L55.1897 4.94298L54.5564 8.21291L53.3379 7.96508Z"
          fill="#2E4F75"/>
    <path d="M62.425 10.3948L62.4456 9.20388L60.3116 8.44663L59.575 9.38286L58.3496 8.94917L62.659 3.71729L63.5746 4.04084L63.6435 10.8216L62.425 10.3948ZM62.5214 5.66547L60.9862 7.57924L62.48 8.10931L62.5214 5.66547Z"
          fill="#2E4F75"/>
    <path d="M65.3295 11.71L64.0215 11.0147L66.424 9.29368C65.9766 8.70853 65.9008 7.95817 66.2726 7.24911C66.8439 6.1752 67.9729 5.89984 69.0537 6.4781L71.236 7.63462L68.2414 13.2589L67.1468 12.6737L68.2758 10.5535L67.374 10.0716L65.3295 11.71ZM69.632 8.02013L68.6063 7.47629C68.1175 7.21469 67.6287 7.35237 67.3809 7.82049C67.14 8.28172 67.2776 8.79114 67.7733 9.05274L68.799 9.59658L69.632 8.02013Z"
          fill="#2E4F75"/>
    <path d="M74.7955 18.2362L77.2118 15.4137L74.7129 16.4532L74.0727 15.9025L74.7129 13.2659L72.2966 16.0883L71.3535 15.276L75.5046 10.4365L76.4339 11.2351L75.4564 14.9387L78.9604 13.4036L79.8897 14.2021L75.7387 19.0416L74.7955 18.2362Z"
          fill="#2E4F75"/>
    <path d="M79.1326 22.9929L79.7591 21.981L78.3065 20.2462L77.1982 20.673L76.3652 19.6817L82.7399 17.3687L83.3663 18.119L79.9794 23.9911L79.1326 22.9929ZM81.6247 18.9726L79.3323 19.84L80.3511 21.0516L81.6247 18.9726Z"
          fill="#2E4F75"/>
    <path d="M87.1456 23.4884C87.7858 24.5348 87.5448 25.712 86.5604 26.3178C85.5691 26.9304 84.4126 26.6207 83.7655 25.5674L83.1253 24.521L81.0876 25.7808L80.4336 24.7207L85.8582 21.375L87.1456 23.4884ZM84.6879 24.9341C84.9771 25.4091 85.459 25.5399 85.9133 25.2645C86.3608 24.9891 86.464 24.4935 86.1749 24.0185L85.5622 23.0272L84.0753 23.9428L84.6879 24.9341Z"
          fill="#2E4F75"/>
    <path d="M83.332 29.6563L89.1904 27.1367L89.6791 28.2795L86.898 29.4773L90.4915 30.1726L91.0766 31.5356L87.4831 30.7508L85.3078 34.2548L84.7088 32.8574L86.8842 29.4842L83.8277 30.799L83.332 29.6563Z"
          fill="#2E4F75"/>
    <path d="M86.4423 38.5234L87.4336 37.8694L86.8554 35.6802L85.6644 35.5976L85.334 34.3447L92.0873 34.9574L92.3351 35.9005L86.7659 39.7831L86.4423 38.5234ZM90.4075 35.9418L87.9568 35.756L88.363 37.2911L90.4075 35.9418Z"
          fill="#2E4F75"/>
    <path d="M8.99754 61.1717L4.02037 62.8789L3.62109 61.7017L8.59827 59.9945L8.06131 58.418L9.11457 58.0601L10.5946 62.3901L9.54138 62.7481L8.99754 61.1717Z"
          fill="#2E4F75"/>
    <path d="M6.98065 69.4942L9.34877 68.2688L8.35746 66.3551L5.98935 67.5804L5.41797 66.4721L11.0767 63.5464L11.648 64.6547L9.335 65.8525L10.3263 67.7663L12.6393 66.5685L13.2107 67.6768L7.55203 70.6025L6.98065 69.4942Z"
          fill="#2E4F75"/>
    <path d="M8.99023 72.8748L14.1533 69.1367L16.6178 72.5374L15.716 73.1914L13.9812 70.8027L12.7696 71.6769L14.2428 73.7146L13.341 74.3686L11.8678 72.3309L10.6149 73.2396L12.3497 75.6284L11.4478 76.2824L8.99023 72.8748Z"
          fill="#2E4F75"/>
    <path d="M17.0661 82.1062L17.8853 77.5283L15.2212 80.3852L14.3125 79.5384L18.6563 74.8779L19.4687 75.6352L18.6563 80.2131L21.3205 77.3562L22.2292 78.2029L17.8853 82.8634L17.0661 82.1062Z"
          fill="#2E4F75"/>
    <path d="M23.6475 86.2094C23.028 86.3333 22.436 86.2369 21.8302 85.8308C21.2312 85.4246 20.9077 84.9083 20.7907 84.2887C20.6186 83.3938 21.0729 82.7398 21.6925 81.8311C22.3052 80.9155 22.7389 80.2478 23.6338 80.0688C24.2533 79.9449 24.8523 80.0481 25.4581 80.4543C26.057 80.8605 26.3736 81.3699 26.4907 81.9963C26.6628 82.8913 26.2153 83.5452 25.5957 84.4608C24.9762 85.3764 24.5425 86.0373 23.6475 86.2094ZM25.2997 82.0996C25.2653 81.8311 25.1138 81.5626 24.8316 81.3699C24.5494 81.1771 24.2396 81.1289 23.9711 81.2047C23.62 81.2941 23.4066 81.5007 22.7182 82.5195C22.0298 83.5384 21.9196 83.8137 21.9678 84.1717C22.0023 84.4402 22.1675 84.7155 22.4497 84.9014C22.732 85.0942 23.0349 85.1355 23.3033 85.0666C23.6544 84.9771 23.8747 84.7706 24.5631 83.7586C25.2446 82.7467 25.3479 82.4576 25.2997 82.0996Z"
          fill="#2E4F75"/>
    <path d="M27.8603 89.2105L27.0273 88.8043L27.9292 82.1543L29.0857 82.7188L28.4179 87.0144L31.385 83.8409L32.5552 84.4123L27.8603 89.2105Z"
          fill="#2E4F75"/>
    <path d="M35.2601 91.3377C34.6956 91.6268 34.1035 91.6956 33.4083 91.4685C32.7198 91.2413 32.2655 90.8351 31.9833 90.2706C31.5702 89.4583 31.8318 88.7079 32.1691 87.6616C32.5064 86.6152 32.7405 85.8511 33.5459 85.438C34.1104 85.1489 34.7162 85.0869 35.4046 85.3072C36.093 85.5275 36.5336 85.9406 36.8227 86.4982C37.2358 87.3105 36.9811 88.0677 36.6438 89.1072C36.3064 90.1674 36.0724 90.9246 35.2601 91.3377ZM35.7213 86.9388C35.6112 86.6909 35.3909 86.4775 35.0673 86.3674C34.7438 86.2641 34.434 86.3054 34.1999 86.4431C33.8901 86.6221 33.7387 86.8837 33.3601 88.0471C32.9814 89.2105 32.947 89.5134 33.0985 89.8438C33.2086 90.0916 33.4358 90.3119 33.7593 90.4152C34.0829 90.5185 34.3858 90.4771 34.6198 90.3395C34.9296 90.1605 35.0948 89.8989 35.4735 88.7355C35.8452 87.5721 35.8659 87.2692 35.7213 86.9388Z"
          fill="#2E4F75"/>
    <path d="M39.7406 93.0451C38.7906 92.8799 38.1022 92.5564 37.5859 91.8198L38.5153 91.1589C38.8457 91.627 39.362 91.8473 39.9403 91.9506C40.6631 92.0745 41.0968 91.868 41.1863 91.3654C41.2276 91.1451 41.1932 90.9455 41.083 90.8009C40.9798 90.6632 40.849 90.5806 40.5667 90.4843L39.8233 90.2502C39.3001 90.0781 38.9283 89.844 38.6943 89.5205C38.4464 89.1694 38.3638 88.7357 38.4533 88.2056C38.6461 87.0835 39.6099 86.4433 40.966 86.6774C41.8334 86.8219 42.4185 87.1455 42.8729 87.7582L41.9642 88.3915C41.6338 87.944 41.1656 87.8064 40.7526 87.7375C40.0986 87.6274 39.72 87.9303 39.6443 88.364C39.6167 88.5223 39.6443 88.7013 39.7544 88.8459C39.8577 88.9835 40.0435 89.1143 40.2983 89.1901L41.0211 89.4241C41.5787 89.6031 41.916 89.8234 42.1363 90.1125C42.4185 90.4843 42.4874 90.973 42.391 91.5306C42.1845 92.756 41.0555 93.2723 39.7406 93.0451Z"
          fill="#2E4F75"/>
    <path d="M43.7832 93.5195L44.2376 87.1655L45.4767 87.255L45.0223 93.6159L43.7832 93.5195Z" fill="#2E4F75"/>
    <path d="M49.7984 93.6435L47.1343 93.733L46.9277 87.3583L49.4886 87.2757C50.7346 87.2344 51.4781 87.909 51.5194 89.0036C51.5401 89.7127 51.0926 90.1808 50.7759 90.346C51.1683 90.5112 51.6709 90.8967 51.6984 91.7504C51.7328 92.9344 50.9411 93.609 49.7984 93.6435ZM49.4198 88.3909L48.2013 88.4322L48.2495 89.8985L49.468 89.8572C49.998 89.8366 50.2803 89.5337 50.2665 89.0931C50.2527 88.6594 49.9498 88.3703 49.4198 88.3909ZM49.585 90.9725L48.2908 91.0138L48.339 92.5833L49.6332 92.542C50.1977 92.5214 50.4524 92.1565 50.4386 91.7297C50.4317 91.296 50.1495 90.9587 49.585 90.9725Z"
          fill="#2E4F75"/>
    <path d="M53.6409 93.3271L52.7598 87.0144L53.992 86.8423L54.8732 93.155L53.6409 93.3271Z" fill="#2E4F75"/>
    <path d="M60.2769 92.0051L58.4526 89.8435L57.5852 90.0638L58.2048 92.5283L57.0001 92.8312L55.4512 86.6561L57.8744 86.0503C59.1341 85.7337 60.091 86.4083 60.3526 87.4409C60.5729 88.3083 60.1736 88.9761 59.6298 89.3478L61.6744 91.6677L60.2769 92.0051ZM58.0602 87.138L56.9244 87.4203L57.3305 89.0518L58.4664 88.7696C58.9965 88.6388 59.2581 88.2119 59.141 87.7369C59.0171 87.2551 58.5903 87.0004 58.0602 87.138Z"
          fill="#2E4F75"/>
    <path d="M65.3717 90.2979C64.4768 90.6696 63.7196 90.7591 62.9004 90.408L63.3341 89.3547C63.8572 89.575 64.4149 89.4924 64.9656 89.2652C65.6471 88.983 65.9018 88.5768 65.7091 88.1087C65.6264 87.9022 65.4956 87.7508 65.3235 87.6888C65.1652 87.6268 65.0069 87.6268 64.7177 87.6957L63.9674 87.8884C63.4304 88.0192 62.9967 88.0192 62.625 87.8678C62.2257 87.7026 61.9297 87.379 61.7232 86.8834C61.2895 85.8301 61.7645 84.7768 63.038 84.2468C63.8504 83.9094 64.5181 83.8681 65.2272 84.1504L64.7935 85.1692C64.2772 84.9696 63.8091 85.1004 63.4167 85.2587C62.804 85.5134 62.6456 85.9747 62.8109 86.3808C62.8728 86.5323 62.9898 86.67 63.1551 86.7319C63.3134 86.7939 63.5406 86.8008 63.7953 86.7388L64.5319 86.5529C65.1033 86.4084 65.5025 86.4152 65.8467 86.546C66.2873 86.7113 66.604 87.0899 66.8174 87.6062C67.2855 88.7558 66.604 89.7884 65.3717 90.2979Z"
          fill="#2E4F75"/>
    <path d="M72.7921 86.4154L69.9009 84.7633L69.6943 86.0299L70.6719 87.6752L69.6048 88.3085L66.3418 82.8357L67.4088 82.2024L68.8269 84.5843L69.3364 81.0527L70.6374 80.2817L70.1211 83.5379L74.0313 85.6788L72.7921 86.4154Z"
          fill="#2E4F75"/>
    <path d="M80.7156 80.0405L78.1754 77.3282L78.9395 79.9235L78.3268 80.4949L75.7798 79.5655L78.32 82.2779L77.4113 83.1246L73.0605 78.471L73.9555 77.6311L77.5214 79.0079L76.3787 75.3594L77.2736 74.5195L81.6243 79.1732L80.7156 80.0405Z"
          fill="#2E4F75"/>
    <path d="M85.7412 74.0725L84.6123 73.687L83.2423 75.4906L83.9101 76.4819L83.1253 77.5145L79.4492 71.8145L80.0412 71.0366L86.526 73.033L85.7412 74.0725ZM81.2666 72.5373L82.6297 74.5819L83.5865 73.3221L81.2666 72.5373Z"
          fill="#2E4F75"/>
    <path d="M89.1969 68.3516L86.3676 68.2277L85.9408 69.0125L88.1712 70.2241L87.5792 71.3187L81.9824 68.2759L83.1734 66.0868C83.7929 64.9509 84.9357 64.6962 85.8719 65.2056C86.6567 65.6324 86.8839 66.3759 86.7875 67.023L89.8784 67.085L89.1969 68.3516ZM84.1165 66.6857L83.5589 67.7183L85.0389 68.5237L85.5966 67.4911C85.8581 67.0092 85.7205 66.5274 85.2868 66.2933C84.8531 66.0592 84.3781 66.2107 84.1165 66.6857Z"
          fill="#2E4F75"/>
    <path d="M92.0478 61.4747L88.7641 62.0392L89.4112 63.1475L91.2148 63.7946L90.7948 64.9649L84.7988 62.8171L85.2188 61.6468L87.8278 62.583L85.976 59.5334L86.4854 58.1084L88.1582 60.9515L92.5365 60.1117L92.0478 61.4747Z"
          fill="#2E4F75"/>
    <path d="M90.9257 45.958L91.6485 48.1747H93.9822L92.096 49.5515L92.8188 51.7682L90.9257 50.3982L89.0394 51.7682L89.7623 49.5515L87.8691 48.1747H90.2097L90.9257 45.958Z"
          fill="#2E4F75"/>
    <path d="M4.07605 45.958L4.792 48.1747H7.13258L5.23946 49.5515L5.96229 51.7682L4.07605 50.3982L2.18294 51.7682L2.90576 49.5515L1.01953 48.1747H3.35323L4.07605 45.958Z"
          fill="#2E4F75"/>
</svg>
